<svg xmlns="http://www.w3.org/2000/svg" viewBox="0 0 48 48" fill="none">
  <!-- Modern Gmail M mark -->
  <path fill="#4285F4" d="M7 12.5v23c0 1.4 1.1 2.5 2.5 2.5H14V18.2L7 12.5z"/>
  <path fill="#34A853" d="M34 18.2V38h4.5c1.4 0 2.5-1.1 2.5-2.5v-23L34 18.2z"/>
  <path fill="#EA4335" d="M34 12.5v5.7L24 25.8 14 18.2v-5.7l10 7.5 10-7.5z"/>
  <path fill="#C5221F" d="M24 25.8l-4.2-3.2L14 18.2v11.3l10-3.7z" opacity=".35"/>
  <path fill="#FBBC04" d="M34 12.5L41 7.2V10c0 .8-.3 1.5-.8 2L34 18.2v-5.7z"/>
  <path fill="#EA4335" d="M14 12.5L7 7.2V10c0 .8.3 1.5.8 2L14 18.2v-5.7z"/>
  <path fill="#EA4335" d="M14 12.5l10 7.5 10-7.5V8.5c0-1.4-1.1-2.5-2.5-2.5h-15c-1.4 0-2.5 1.1-2.5 2.5v4z"/>
  <path fill="#FBBC04" d="M34 12.5V8.5c0-1.4 0-2.5 0-2.5h2.5C37.9 6 39 7.1 39 8.5v1.5L34 12.5z"/>
</svg>
